<?xml version="1.0" standalone="no"?>
<svg viewBox="0 0 200 200" xmlns="http://www.w3.org/2000/svg">
  <path fill="#7B40D4" d="M42.5,-72.6C54.9,-66.5,64.7,-54.7,71.2,-41.7C77.7,-28.6,81,-14.3,82.9,1.1C84.8,16.5,85.3,33.1,77.3,43.5C69.3,53.9,52.7,58.3,38.4,62.9C24.1,67.5,12,72.3,0.2,71.9C-11.6,71.5,-23.1,65.8,-34.9,59.7C-46.8,53.7,-58.8,47.3,-66.8,37.3C-74.8,27.3,-78.7,13.6,-76.9,1C-75.1,-11.6,-67.7,-23.2,-61.3,-35.9C-54.8,-48.5,-49.3,-62.2,-39.3,-69.7C-29.2,-77.1,-14.6,-78.4,0.2,-78.8C15.1,-79.2,30.1,-78.8,42.5,-72.6Z" transform="translate(100 100)" />
</svg>
