<?xml version="1.0" standalone="no"?>
<svg viewBox="0 0 200 200" xmlns="http://www.w3.org/2000/svg">
  <path fill="#7B40D4" d="M36.7,-66.3C46.5,-58,52.5,-45.9,59.5,-34.2C66.5,-22.5,74.5,-11.3,78.1,2C81.6,15.4,80.7,30.7,72.4,40.2C64.2,49.7,48.6,53.4,35.3,57.7C22,62,11,66.8,-2,70.3C-15,73.8,-30,75.8,-41.3,70.4C-52.6,65,-60.3,52.1,-68.4,39.2C-76.4,26.2,-84.7,13.1,-85.3,-0.3C-85.9,-13.8,-78.7,-27.5,-69.4,-38.3C-60.1,-49.1,-48.8,-57,-36.9,-64C-25,-71.1,-12.5,-77.3,0.5,-78.2C13.5,-79.1,27,-74.5,36.7,-66.3Z" transform="translate(100 100)" />
</svg>
