<?xml version="1.0" standalone="no"?>
<svg viewBox="0 0 200 200" xmlns="http://www.w3.org/2000/svg">
  <path fill="#7B40D4" d="M16.7,-34.5C22.2,-25.7,27.6,-22.4,29.9,-17.5C32.2,-12.7,31.4,-6.4,27.9,-2C24.5,2.4,18.5,4.8,17.1,11.3C15.8,17.9,19.2,28.6,17.2,43C15.1,57.4,7.6,75.5,-2.3,79.4C-12.1,83.4,-24.2,73.2,-26.8,59C-29.3,44.9,-22.2,26.8,-32,16.3C-41.7,5.8,-68.2,2.9,-71.9,-2.2C-75.7,-7.2,-56.6,-14.5,-47.2,-25.4C-37.7,-36.4,-37.9,-51.1,-31.6,-59.4C-25.3,-67.7,-12.7,-69.5,-3.5,-63.4C5.6,-57.3,11.2,-43.2,16.7,-34.5Z" transform="translate(100 100)" />
</svg>
