<?xml version="1.0" standalone="no"?>
<svg viewBox="0 0 200 200" xmlns="http://www.w3.org/2000/svg">
  <path fill="#7B40D4" d="M40.8,-74.3C50.8,-65,55.2,-49.7,64,-36.3C72.7,-22.9,85.8,-11.5,89.7,2.2C93.5,15.9,88.2,31.9,78.3,43.3C68.5,54.8,54.1,61.8,40.3,65.5C26.5,69.3,13.2,69.8,0.5,68.9C-12.2,68,-24.4,65.7,-33.2,59.1C-42,52.4,-47.3,41.4,-51.7,30.8C-56.2,20.3,-59.6,10.1,-62.8,-1.8C-65.9,-13.8,-68.7,-27.5,-65.3,-39.9C-61.9,-52.2,-52.4,-63.2,-40.5,-71.4C-28.5,-79.6,-14.3,-85,0.6,-86C15.4,-87,30.9,-83.6,40.8,-74.3Z" transform="translate(100 100)" />
</svg>
