<?xml version="1.0" standalone="no"?>
<svg viewBox="0 0 200 200" xmlns="http://www.w3.org/2000/svg">
  <path fill="#7B40D4" d="M26.9,-34.6C36.6,-35.6,47.4,-31.1,51.4,-23.2C55.4,-15.3,52.5,-4.1,53.7,9.7C54.8,23.5,59.9,39.9,52.6,42C45.2,44.1,25.5,31.9,12.7,29.2C-0.1,26.5,-5.9,33.3,-17.9,39.6C-29.9,45.8,-47.9,51.5,-60,46.8C-72.1,42.2,-78.2,27.1,-78.6,12.4C-79.1,-2.4,-74,-16.9,-68.2,-31.8C-62.5,-46.7,-56.1,-62,-44.6,-60.2C-33.1,-58.4,-16.6,-39.4,-4,-33.3C8.6,-27.1,17.2,-33.6,26.9,-34.6Z" transform="translate(100 100)" />
</svg>
