<?xml version="1.0" standalone="no"?>
<svg viewBox="0 0 200 200" xmlns="http://www.w3.org/2000/svg">
  <path fill="#7B40D4" d="M36.7,-64.1C47.9,-57.2,57.4,-47.9,67.2,-36.8C77,-25.7,87.1,-12.9,88.2,0.6C89.3,14.1,81.4,28.3,73.5,42.6C65.6,57,57.6,71.5,45.4,79.4C33.1,87.3,16.6,88.6,0.7,87.4C-15.3,86.3,-30.5,82.8,-44.8,76.1C-59,69.3,-72.3,59.4,-79.2,46.1C-86.1,32.9,-86.6,16.5,-86.3,0.2C-86.1,-16.1,-85,-32.3,-77.4,-44.4C-69.9,-56.5,-55.9,-64.6,-42,-69.9C-28,-75.2,-14,-77.7,-0.6,-76.6C12.8,-75.6,25.6,-71,36.7,-64.1Z" transform="translate(100 100)" />
</svg>
