<?xml version="1.0" standalone="no"?>
<svg viewBox="0 0 200 200" xmlns="http://www.w3.org/2000/svg">
  <path fill="#7B40D4" d="M35.9,-58.3C50.2,-53.8,68.3,-51.8,79.4,-42.5C90.5,-33.2,94.7,-16.6,93.4,-0.8C92,15,85,30,76,42.9C66.9,55.9,55.8,66.7,42.8,70.1C29.8,73.4,14.9,69.4,1.8,66.2C-11.2,63,-22.5,60.7,-34.4,56.7C-46.3,52.7,-59,47,-65.4,37.3C-71.9,27.6,-72.2,13.8,-74.4,-1.3C-76.7,-16.3,-80.8,-32.7,-75.2,-44C-69.7,-55.3,-54.4,-61.6,-40.3,-66.2C-26.1,-70.9,-13.1,-73.9,-1.2,-71.8C10.7,-69.8,21.5,-62.8,35.9,-58.3Z" transform="translate(100 100)" />
</svg>
