<?xml version="1.0" standalone="no"?>
<svg viewBox="0 0 200 200" xmlns="http://www.w3.org/2000/svg">
  <path fill="#7B40D4" d="M41.2,-73.4C52.6,-64.8,60.5,-52.1,68.6,-39.2C76.8,-26.3,85.3,-13.1,85.9,0.3C86.5,13.8,79.2,27.7,71.1,40.7C63,53.7,54.1,66,42.1,72.2C30.1,78.5,15,78.8,1.1,76.9C-12.8,74.9,-25.5,70.6,-38.1,64.7C-50.7,58.7,-63.1,51.1,-70.3,40.1C-77.5,29,-79.6,14.5,-81.4,-1C-83.2,-16.5,-84.6,-33.1,-79,-47.1C-73.4,-61,-60.9,-72.4,-46.6,-79.3C-32.2,-86.2,-16.1,-88.7,-0.6,-87.7C14.9,-86.6,29.8,-82.1,41.2,-73.4Z" transform="translate(100 100)" />
</svg>
